<svg width="100" height="104" viewBox="0 0 100 104" fill="none" xmlns="http://www.w3.org/2000/svg">
<path d="M12.5 39.1667C12.5 29.8325 12.5 25.1654 14.3166 21.6002C15.9144 18.4641 18.4641 15.9144 21.6002 14.3166C25.1654 12.5 29.8325 12.5 39.1667 12.5H60.8333C70.1675 12.5 74.8346 12.5 78.3998 14.3166C81.5359 15.9144 84.0855 18.4641 85.6834 21.6002C87.5 25.1654 87.5 29.8325 87.5 39.1667V60.8333C87.5 70.1675 87.5 74.8346 85.6834 78.3998C84.0855 81.5359 81.5359 84.0855 78.3998 85.6834C74.8346 87.5 70.1675 87.5 60.8333 87.5H39.1667C29.8325 87.5 25.1654 87.5 21.6002 85.6834C18.4641 84.0855 15.9144 81.5359 14.3166 78.3998C12.5 74.8346 12.5 70.1675 12.5 60.8333V39.1667Z" fill="#8B5CF6"/>
<path fill-rule="evenodd" clip-rule="evenodd" d="M45.8334 33.3334C45.8334 31.0322 47.6989 29.1667 50.0001 29.1667H66.6667C68.9679 29.1667 70.8334 31.0322 70.8334 33.3334C70.8334 35.6345 68.9679 37.5 66.6667 37.5H50.0001C47.6989 37.5 45.8334 35.6345 45.8334 33.3334ZM50.0001 45.8334C47.6989 45.8334 45.8334 47.6988 45.8334 50C45.8334 52.3012 47.6989 54.1667 50.0001 54.1667H66.6667C68.9679 54.1667 70.8334 52.3012 70.8334 50C70.8334 47.6988 68.9679 45.8334 66.6667 45.8334H50.0001ZM50.0001 62.5C47.6989 62.5 45.8334 64.3655 45.8334 66.6667C45.8334 68.9679 47.6989 70.8334 50.0001 70.8334H66.6667C68.9679 70.8334 70.8334 68.9679 70.8334 66.6667C70.8334 64.3655 68.9679 62.5 66.6667 62.5H50.0001ZM33.3334 70.8334C35.6346 70.8334 37.5001 68.9679 37.5001 66.6667C37.5001 64.3655 35.6346 62.5 33.3334 62.5C31.0322 62.5 29.1667 64.3655 29.1667 66.6667C29.1667 68.9679 31.0322 70.8334 33.3334 70.8334ZM37.5001 50C37.5001 52.3012 35.6346 54.1667 33.3334 54.1667C31.0322 54.1667 29.1667 52.3012 29.1667 50C29.1667 47.6988 31.0322 45.8334 33.3334 45.8334C35.6346 45.8334 37.5001 47.6988 37.5001 50ZM33.3334 37.5C35.6346 37.5 37.5001 35.6345 37.5001 33.3334C37.5001 31.0322 35.6346 29.1667 33.3334 29.1667C31.0322 29.1667 29.1667 31.0322 29.1667 33.3334C29.1667 35.6345 31.0322 37.5 33.3334 37.5Z" fill="#EDE9FE"/>
<path d="M56.25 69.5833C56.25 64.9162 56.25 62.5827 57.1583 60.8001C57.9572 59.2321 59.2321 57.9572 60.8001 57.1583C62.5827 56.25 64.9162 56.25 69.5833 56.25H80.4167C85.0838 56.25 87.4173 56.25 89.1999 57.1583C90.7679 57.9572 92.0428 59.2321 92.8417 60.8001C93.75 62.5827 93.75 64.9162 93.75 69.5833V80.4167C93.75 85.0838 93.75 87.4173 92.8417 89.1999C92.0428 90.7679 90.7679 92.0428 89.1999 92.8417C87.4173 93.75 85.0838 93.75 80.4167 93.75H69.5833C64.9162 93.75 62.5827 93.75 60.8001 92.8417C59.2321 92.0428 57.9572 90.7679 57.1583 89.1999C56.25 87.4173 56.25 85.0838 56.25 80.4167V69.5833Z" fill="#EDE9FE"/>
<path fill-rule="evenodd" clip-rule="evenodd" d="M74.9999 64.5833C76.1505 64.5833 77.0833 65.5161 77.0833 66.6666V72.9166H83.3333C84.4838 72.9166 85.4166 73.8494 85.4166 75C85.4166 76.1506 84.4838 77.0833 83.3333 77.0833H77.0833V83.3333C77.0833 84.4839 76.1505 85.4166 74.9999 85.4166C73.8493 85.4166 72.9166 84.4839 72.9166 83.3333V77.0833H66.6666C65.516 77.0833 64.5833 76.1506 64.5833 75C64.5833 73.8494 65.516 72.9166 66.6666 72.9166H72.9166V66.6666C72.9166 65.5161 73.8493 64.5833 74.9999 64.5833Z" fill="#8B5CF6"/>
</svg>
