<svg width="50" height="50" viewBox="0 0 50 50" fill="none" xmlns="http://www.w3.org/2000/svg">
<circle cx="25" cy="25" r="24.5" fill="#8B5CF6" fill-opacity="0.1" stroke="#8B5CF6"/>
<path d="M33.75 23.75H26.25V16.25C26.25 15.9185 26.1183 15.6005 25.8839 15.3661C25.6495 15.1317 25.3315 15 25 15C24.6685 15 24.3505 15.1317 24.1161 15.3661C23.8817 15.6005 23.75 15.9185 23.75 16.25V23.75H16.25C15.9185 23.75 15.6005 23.8817 15.3661 24.1161C15.1317 24.3505 15 24.6685 15 25C15 25.3315 15.1317 25.6495 15.3661 25.8839C15.6005 26.1183 15.9185 26.25 16.25 26.25H23.75V33.75C23.75 34.0815 23.8817 34.3995 24.1161 34.6339C24.3505 34.8683 24.6685 35 25 35C25.3315 35 25.6495 34.8683 25.8839 34.6339C26.1183 34.3995 26.25 34.0815 26.25 33.75V26.25H33.75C34.0815 26.25 34.3995 26.1183 34.6339 25.8839C34.8683 25.6495 35 25.3315 35 25C35 24.6685 34.8683 24.3505 34.6339 24.1161C34.3995 23.8817 34.0815 23.75 33.75 23.75Z" fill="#8B5CF6"/>
</svg>
