<svg width="100" height="100" viewBox="0 0 100 100" fill="none" xmlns="http://www.w3.org/2000/svg">
<path d="M50.0002 8.33331C26.9883 8.33331 8.3335 26.9881 8.3335 50C8.3335 73.0118 26.9883 91.6667 50.0002 91.6667C73.012 91.6667 91.6668 73.0118 91.6668 50C91.6668 26.9881 73.012 8.33331 50.0002 8.33331Z" fill="#EDE9FE"/>
<path fill-rule="evenodd" clip-rule="evenodd" d="M65.4464 38.7204C67.0736 40.3476 67.0736 42.9858 65.4464 44.6129L48.7798 61.2796C47.1526 62.9068 44.5144 62.9068 42.8872 61.2796L34.5539 52.9463C32.9267 51.3191 32.9267 48.6809 34.5539 47.0537C36.1811 45.4265 38.8193 45.4265 40.4464 47.0537L45.8335 52.4408L59.5539 38.7204C61.1811 37.0932 63.8193 37.0932 65.4464 38.7204Z" fill="#8B5CF6"/>
</svg>
