<?xml version="1.0" standalone="no"?>
<!DOCTYPE svg PUBLIC "-//W3C//DTD SVG 20010904//EN"
 "http://www.w3.org/TR/2001/REC-SVG-20010904/DTD/svg10.dtd">
<svg version="1.0" xmlns="http://www.w3.org/2000/svg"
 width="510.000000pt" height="510.000000pt" viewBox="0 0 510.000000 510.000000"
 preserveAspectRatio="xMidYMid meet">

<g transform="translate(0.000000,510.000000) scale(0.100000,-0.100000)"
fill="#000000" stroke="none">
<path d="M2385 4882 c-43 -5 -70 -15 -97 -35 -34 -26 -36 -30 -27 -60 5 -18 9
-193 9 -389 0 -197 4 -359 9 -362 5 -3 3 -23 -5 -43 -7 -21 -13 -62 -14 -91 0
-29 -9 -81 -21 -115 -39 -115 -77 -172 -183 -275 -270 -259 -294 -292 -339
-449 -21 -75 -22 -92 -20 -458 1 -209 7 -744 13 -1190 11 -805 11 -810 -9
-874 -42 -130 -13 -259 67 -297 64 -30 195 -37 787 -38 609 -1 656 2 753 44
35 16 47 29 67 72 31 66 32 124 4 214 l-22 69 12 910 c19 1441 19 1446 -7
1540 -45 166 -73 203 -327 445 -88 83 -118 119 -147 175 -46 90 -65 153 -74
240 -3 39 -11 78 -16 88 -6 12 -6 23 1 31 8 9 11 128 11 363 0 193 2 368 6
390 6 37 4 40 -33 66 -37 26 -46 27 -189 31 -82 3 -176 1 -209 -2z m105 -52
c-30 -4 -43 -7 -29 -8 47 -3 55 -24 63 -153 6 -90 7 -89 -109 -89 l-70 0 2 87
c1 49 2 96 2 105 1 9 8 24 17 32 14 15 13 16 -6 16 -12 0 -18 5 -15 10 4 6 47
9 103 8 86 -1 91 -2 42 -8z m198 3 c-27 -2 -69 -2 -95 0 -27 2 -5 3 47 3 52 0
74 -1 48 -3z m10 -31 c18 -16 21 -32 24 -115 3 -85 1 -97 -14 -101 -14 -3 -18
2 -18 20 0 13 -5 24 -12 24 -9 0 -9 3 0 12 7 7 12 24 12 38 0 48 -49 69 -70
30 -6 -11 -16 -18 -21 -14 -7 4 -7 10 0 17 6 6 11 24 11 40 0 63 44 87 88 49z
m-23 -122 c0 -18 -6 -26 -21 -28 -26 -4 -40 24 -23 45 18 21 44 11 44 -17z
m-21 -50 c35 -13 38 -55 4 -46 -13 3 -31 6 -41 6 -13 0 -16 5 -11 24 3 13 1
35 -6 48 l-11 23 19 -22 c11 -13 32 -27 46 -33z m-130 -322 l4 -248 -100 0
c-70 0 -97 3 -92 11 12 21 13 458 1 466 -17 11 46 21 120 19 l62 -1 5 -247z
m163 244 l33 -2 -1 -235 c0 -130 3 -240 6 -245 4 -6 -20 -10 -62 -10 -67 0
-69 1 -69 25 0 28 28 41 71 33 24 -5 25 -3 24 48 -1 44 -5 53 -22 58 -28 7
-34 0 -8 -9 12 -3 21 -11 21 -16 0 -6 -4 -8 -9 -4 -5 3 -13 1 -16 -5 -4 -6
-15 -8 -25 -5 -12 4 -23 -1 -30 -12 -10 -16 -11 -15 -5 7 3 14 5 104 5 201
l-1 176 28 -2 c15 -1 43 -3 60 -3z m-7 -398 c0 -9 -11 -14 -36 -14 -24 0 -34
4 -31 13 2 6 11 11 20 9 8 -1 18 2 22 8 8 13 25 3 25 -16z m-235 -280 c-5 -35
-9 -41 -25 -37 -11 3 -20 12 -20 19 0 8 -4 14 -10 14 -6 0 -10 26 -10 59 l0
60 33 3 c31 3 32 2 35 -37 2 -22 1 -59 -3 -81z m251 53 c1 -31 -3 -57 -8 -57
-5 0 -14 -15 -20 -32 l-12 -33 -12 30 c-7 17 -13 60 -14 96 l0 66 33 -6 c31
-7 32 -8 33 -64z m-296 -411 c0 -2 -8 -10 -17 -17 -16 -13 -17 -12 -4 4 13 16
21 21 21 13z m-105 -76 c3 -5 -1 -10 -9 -10 -9 0 -16 5 -16 10 0 6 4 10 9 10
6 0 13 -4 16 -10z m85 -31 c0 -5 -4 -9 -10 -9 -5 0 -10 7 -10 16 0 8 5 12 10
9 6 -3 10 -10 10 -16z m85 -19 c26 -29 15 -32 -15 -4 -13 13 -20 24 -14 24 6
0 19 -9 29 -20z m-268 -42 c-3 -7 -5 -2 -5 12 0 14 2 19 5 13 2 -7 2 -19 0
-25z m73 -9 c0 -6 -4 -7 -10 -4 -5 3 -10 11 -10 16 0 6 5 7 10 4 6 -3 10 -11
10 -16z m145 1 c3 -5 1 -10 -4 -10 -6 0 -11 5 -11 10 0 6 2 10 4 10 3 0 8 -4
11 -10z m760 -165 c79 -162 85 -229 65 -735 -12 -294 -59 -1666 -62 -1800 -1
-82 2 -103 24 -152 21 -50 24 -65 17 -114 -4 -31 -13 -62 -19 -68 -8 -8 -9 -4
-1 17 6 16 11 45 11 66 0 39 -37 144 -49 137 -3 -2 -6 10 -5 27 11 211 16 348
29 732 9 248 20 556 25 685 32 789 34 951 16 1031 -18 80 -73 206 -127 287
l-30 47 31 -35 c17 -19 51 -75 75 -125z m-1094 108 c15 -40 4 -52 -14 -16 -20
37 -21 43 -7 43 6 0 15 -12 21 -27z m397 -13 c8 -21 8 -32 0 -36 -6 -4 -8 -3
-5 3 3 5 0 21 -8 36 -8 15 -10 27 -5 27 4 0 13 -13 18 -30z m29 -52 c-3 -8 -6
-5 -6 6 -1 11 2 17 5 13 3 -3 4 -12 1 -19z m-586 -57 c-26 -50 -26 -103 -1
-158 21 -47 12 -57 -18 -19 -25 32 -21 114 9 178 12 27 24 46 26 44 3 -2 -5
-22 -16 -45z m259 -2 c0 -6 -4 -7 -10 -4 -5 3 -10 11 -10 16 0 6 5 7 10 4 6
-3 10 -11 10 -16z m282 -11 c-7 -7 -12 -8 -12 -2 0 14 12 26 19 19 2 -3 -1
-11 -7 -17z m-170 -50 c11 -24 15 -38 9 -33 -5 6 -17 28 -27 50 -21 52 -7 38
18 -17z m247 -28 c-1 -53 -6 -44 -12 24 -3 30 -1 43 4 35 5 -8 8 -34 8 -59z
m-602 28 c-3 -8 -6 -5 -6 6 -1 11 2 17 5 13 3 -3 4 -12 1 -19z m-57 -41 c0
-16 -3 -18 -9 -9 -5 8 -13 -15 -21 -65 -14 -82 -14 -90 25 -1173 8 -217 22
-591 30 -830 l15 -436 -22 -44 c-32 -66 -36 -150 -9 -195 11 -20 16 -33 11
-30 -18 11 -37 58 -44 108 -6 40 -3 57 19 105 29 62 31 85 20 347 -3 72 -15
398 -26 725 -11 327 -26 761 -34 963 -13 363 -12 426 16 530 10 39 29 42 29 4z
m317 -56 c-3 -11 -5 -9 -6 5 0 11 -10 30 -21 41 -13 15 -16 23 -7 26 14 4 40
-50 34 -72z m380 37 c-3 -7 -5 -2 -5 12 0 14 2 19 5 13 2 -7 2 -19 0 -25z
m-175 -17 c2 -17 1 -28 -3 -26 -4 3 -9 18 -11 34 -2 17 -1 28 3 26 4 -3 9 -18
11 -34z m-299 -44 c-3 -5 -10 -4 -15 1 -6 6 -7 16 -3 22 6 9 9 9 16 -1 4 -7 5
-17 2 -22z m277 9 c0 -3 -4 -8 -10 -11 -5 -3 -10 -1 -10 4 0 6 5 11 10 11 6 0
10 -2 10 -4z m-350 -88 c0 -5 -4 -8 -10 -8 -5 0 -10 10 -10 23 0 18 2 19 10 7
5 -8 10 -18 10 -22z m100 -44 c0 -19 -3 -34 -7 -34 -5 0 -8 18 -8 39 0 22 3
37 8 34 4 -2 7 -20 7 -39z m128 -19 c-3 -3 -9 2 -12 12 -6 14 -5 15 5 6 7 -7
10 -15 7 -18z m850 -267 c-9 -13 -23 -25 -33 -26 -16 -4 -16 -2 0 22 10 14 24
26 32 26 14 0 14 -3 1 -22z m-1000 -30 c15 -15 16 -55 1 -63 -6 -5 -3 -13 10
-22 28 -19 27 -58 -1 -77 -30 -21 -173 -23 -146 -2 15 11 17 24 12 87 -3 40
-11 77 -17 81 -7 4 20 8 59 8 41 0 75 -5 82 -12z m532 -40 c0 -16 -4 -28 -10
-28 -5 0 -10 6 -10 14 0 15 -21 26 -51 26 -28 0 -52 -43 -44 -80 10 -48 45
-59 110 -35 17 6 17 4 -4 -14 -53 -48 -154 -10 -154 57 0 57 46 91 120 89 40
-2 43 -4 43 -29z m170 5 c0 -26 -15 -31 -24 -8 -3 9 -19 15 -41 15 -32 0 -35
-2 -35 -30 0 -23 4 -30 20 -30 11 0 23 7 26 15 9 23 24 7 24 -26 0 -33 -7 -37
-25 -12 -17 23 -47 10 -43 -19 2 -19 10 -24 41 -26 26 -2 39 1 43 12 9 24 24
19 24 -8 0 -23 -3 -23 -85 -25 -53 -1 -85 2 -85 9 0 5 6 10 13 10 16 0 10 129
-6 131 -27 3 61 16 106 16 43 0 47 -2 47 -24z m95 17 c3 -5 0 -10 -7 -10 -10
0 -12 -16 -10 -65 l4 -65 30 0 c18 0 37 8 44 18 12 15 13 14 14 -10 l0 -28
-75 0 c-43 0 -75 4 -75 10 0 6 4 10 8 10 11 0 2 124 -9 128 -5 2 -7 8 -3 13 7
12 71 12 79 -1z m241 -21 c24 -22 31 -60 18 -94 -8 -21 -56 -45 -89 -45 -33 0
-81 24 -89 45 -18 48 5 99 54 118 27 11 82 -2 106 -24z m-883 -27 c19 -52 43
-92 56 -92 12 0 0 124 -13 132 -6 4 21 8 60 8 86 0 105 -13 86 -63 -10 -25 -9
-35 4 -56 22 -34 55 -61 77 -61 9 0 17 -4 17 -10 0 -30 -87 6 -123 51 -15 19
-32 39 -37 46 -14 17 -12 23 5 23 21 0 30 27 15 45 -27 33 -40 17 -40 -50 0
-37 4 -65 10 -65 6 0 10 -4 10 -10 0 -6 -32 -10 -76 -10 -61 0 -74 3 -66 13
17 20 -2 39 -34 35 -23 -2 -29 -7 -27 -25 2 -19 -2 -23 -27 -23 -35 0 -37 6
-11 28 10 10 28 43 41 75 29 73 49 75 73 9z m-98 -232 c6 -10 -15 -50 -27 -50
-5 0 -8 14 -8 30 0 29 21 42 35 20z m85 -5 c10 -12 10 -18 0 -30 -7 -8 -18
-15 -25 -15 -7 0 -18 7 -25 15 -10 12 -10 18 0 30 7 8 18 15 25 15 7 0 18 -7
25 -15z m48 3 c9 -9 12 -9 12 0 0 7 4 12 9 12 4 0 6 -11 3 -25 -4 -25 -5 -25
-25 -8 -20 18 -20 17 -15 -4 4 -13 2 -23 -3 -23 -5 0 -9 14 -9 30 0 32 9 37
28 18z m122 -3 c10 -12 10 -18 0 -30 -22 -26 -45 -18 -45 15 0 33 23 41 45 15z
m78 -13 c4 -28 -24 -40 -45 -19 -14 13 -14 19 -3 32 18 22 44 15 48 -13z m51
7 c11 -18 11 -23 -1 -30 -22 -15 -28 -10 -28 21 0 35 10 38 29 9z m36 -9 c0
-16 -3 -30 -6 -30 -9 0 -19 42 -13 52 11 17 19 7 19 -22z m41 0 c1 -39 -12
-39 -18 0 -3 17 0 30 6 30 6 0 11 -14 12 -30z m47 13 c19 -17 20 -17 14 0 -4
9 -2 17 3 17 6 0 10 -11 10 -25 0 -26 -14 -33 -26 -13 -5 8 -10 6 -14 -8 -6
-15 -8 -13 -12 14 -5 37 -2 39 25 15z m63 -13 c1 -39 -12 -39 -18 0 -3 17 0
30 6 30 6 0 11 -14 12 -30z m74 21 c0 -5 -9 -7 -20 -4 -14 4 -20 0 -20 -11 0
-10 9 -16 23 -16 21 -1 21 -1 3 -12 -15 -9 -22 -7 -32 7 -10 14 -11 22 -3 32
13 15 49 18 49 4z m55 -28 c4 -14 2 -23 -4 -23 -6 0 -11 6 -11 13 0 8 -3 7
-10 -3 -15 -24 -22 -5 -9 24 13 28 23 25 34 -11z m39 10 c-10 -40 -14 -41 -14
-5 0 18 5 32 10 32 6 0 8 -11 4 -27z m36 1 c0 -26 -20 -30 -28 -4 -3 8 0 10 8
5 10 -6 12 -4 7 8 -3 10 -2 17 3 17 6 0 10 -12 10 -26z m70 11 c10 -12 10 -18
0 -30 -16 -19 -25 -19 -45 1 -12 12 -13 19 -4 30 15 18 33 18 49 -1z m-585
-385 c17 -7 14 -9 -13 -9 -20 -1 -31 3 -27 9 7 12 13 12 40 0z m-175 -83 c6
-20 18 -44 27 -52 13 -13 12 -15 -10 -15 -17 0 -24 5 -23 18 1 12 -8 18 -28
20 -25 3 -28 1 -23 -17 4 -17 1 -21 -16 -20 -12 0 -16 3 -9 6 6 2 12 8 12 13
0 5 9 30 20 56 22 51 31 50 50 -9z m163 5 c50 -64 47 -85 -4 -25 -23 26 -44
50 -46 53 -3 3 -3 -19 -2 -48 3 -30 0 -52 -6 -52 -6 0 -10 27 -10 60 0 75 15
78 68 12z m50 41 c-7 -2 -19 -2 -25 0 -7 3 -2 5 12 5 14 0 19 -2 13 -5z m87
-56 c4 -46 2 -57 -10 -57 -12 0 -15 13 -15 60 0 76 18 74 25 -3z m174 52 c-3
-6 -6 -31 -6 -55 1 -24 -3 -46 -8 -49 -15 -9 -12 89 2 103 15 15 21 16 12 1z
m184 -16 c6 -9 12 -27 12 -38 0 -26 -33 -59 -52 -52 -9 4 -8 6 3 6 18 1 30 41
22 72 -3 10 -19 24 -37 29 l-31 10 35 -5 c19 -3 41 -13 48 -22z m-96 -18 c-3
-25 1 -42 13 -55 20 -22 14 -25 -16 -9 -11 5 -17 14 -14 20 4 5 1 9 -4 9 -17
0 -13 31 6 52 9 10 17 18 18 18 0 0 -1 -16 -3 -35z m-355 -12 c-3 -10 -5 -4
-5 12 0 17 2 24 5 18 2 -7 2 -21 0 -30z m163 -48 c0 -8 -4 -15 -10 -15 -5 0
-7 7 -4 15 4 8 8 15 10 15 2 0 4 -7 4 -15z m560 -154 c0 -66 -13 -90 -52 -91
-9 0 -19 -6 -22 -12 -7 -18 -31 21 -31 51 0 13 -5 26 -11 28 -12 4 -28 -82
-18 -98 9 -15 -7 -10 -33 11 -30 24 -71 26 -99 5 -18 -13 -16 -14 16 -9 30 5
39 1 69 -30 41 -42 37 -44 -20 -14 -26 13 -62 22 -93 23 -28 0 -57 4 -63 8 -8
5 -13 3 -13 -5 0 -9 14 -15 38 -16 20 -2 49 -12 65 -23 15 -11 32 -17 37 -14
20 12 9 -11 -20 -44 l-30 -34 0 37 c0 41 -15 47 -31 12 -11 -23 -12 -23 -38
-8 -17 9 -35 13 -47 8 -17 -7 -16 -9 9 -23 35 -18 30 -27 -6 -14 -21 8 -31 6
-49 -9 l-23 -19 35 -1 35 -1 -30 -13 c-17 -7 -36 -25 -43 -40 -16 -37 -15 -42
6 -19 23 26 66 43 82 33 9 -6 5 -12 -17 -24 -32 -16 -57 -54 -28 -42 8 3 21 9
29 12 11 4 13 -5 10 -43 -3 -43 -3 -44 5 -15 12 45 31 64 31 31 0 -43 17 -55
24 -16 10 56 29 64 60 25 19 -24 26 -28 26 -15 0 9 5 17 10 17 6 0 10 -13 10
-29 0 -17 -4 -33 -10 -36 -5 -3 -10 -23 -11 -43 -1 -37 -1 -37 -14 13 -16 62
-34 109 -40 103 -3 -2 4 -30 15 -61 23 -64 26 -117 8 -117 -7 0 -220 -36 -473
-79 -420 -72 -462 -78 -477 -64 -15 13 -18 33 -18 103 0 79 -12 372 -24 589
l-5 84 634 -4 635 -4 0 -64z m-15 -223 c-4 -73 -6 -165 -6 -204 1 -50 -3 -75
-13 -83 -7 -6 -51 -18 -97 -26 -94 -17 -120 -19 -103 -7 6 4 14 27 17 51 6 49
68 180 97 206 17 15 18 15 17 -12 -2 -67 3 -108 13 -93 5 8 7 23 4 34 -5 13
-2 17 7 12 8 -4 6 -1 -3 6 -10 9 -14 19 -8 28 4 7 6 19 3 27 -3 9 0 11 10 7 9
-3 20 -19 26 -35 15 -42 22 -36 21 19 0 26 0 54 1 62 0 8 0 24 -1 35 0 17 6
95 9 103 1 1 4 2 7 2 3 0 3 -60 -1 -132z m-117 -50 c-3 -7 -13 -15 -23 -16
-15 -4 -16 -2 -4 12 17 19 32 21 27 4z m-73 -8 c-3 -5 -11 -10 -16 -10 -6 0
-7 5 -4 10 3 6 11 10 16 10 6 0 7 -4 4 -10z m-71 -8 c3 -5 -1 -9 -9 -9 -8 0
-12 4 -9 9 3 4 7 8 9 8 2 0 6 -4 9 -8z m114 -19 c-33 -68 -41 -76 -51 -49 -7
18 20 56 39 56 9 0 14 -3 12 -7z"/>
<path d="M2610 4471 c0 -50 4 -74 16 -85 31 -32 65 -11 63 39 l-1 30 -7 -30
c-4 -21 -13 -31 -29 -33 -22 -3 -24 0 -26 51 -2 27 1 28 31 25 33 -4 33 -4 32
37 -2 30 -3 33 -6 13 -4 -24 -9 -28 -35 -28 -27 0 -30 3 -26 25 3 14 1 25 -3
25 -5 0 -9 -31 -9 -69z"/>
<path d="M2687 4375 c-11 -16 -26 -23 -45 -22 -25 2 -27 -1 -30 -37 -3 -34 -1
-38 11 -28 10 8 22 9 38 3 23 -9 23 -9 -13 -25 -21 -9 -38 -21 -38 -26 0 -13
3 -13 36 4 15 8 31 13 36 10 4 -3 8 14 7 38 0 24 -3 37 -6 31 -7 -19 -63 -17
-63 2 0 11 8 15 26 13 19 -2 32 5 47 24 11 15 19 30 16 32 -2 2 -12 -6 -22
-19z"/>
<path d="M2030 2460 l0 -80 29 0 c21 0 32 6 36 20 8 25 -10 50 -36 50 -25 0
-24 12 1 28 25 16 26 38 1 52 -11 5 -22 10 -25 10 -3 0 -6 -36 -6 -80z"/>
<path d="M3034 2485 c-29 -45 -2 -105 47 -105 37 0 52 33 39 81 -16 54 -58 66
-86 24z"/>
<path d="M2210 2471 c0 -5 -3 -16 -6 -25 -4 -11 0 -16 14 -16 15 0 19 5 15 20
-6 22 -23 38 -23 21z"/>
<path d="M2215 2230 c-7 -12 2 -30 16 -30 12 0 12 27 0 35 -5 3 -12 1 -16 -5z"/>
<path d="M2390 2220 c0 -11 5 -20 10 -20 6 0 10 9 10 20 0 11 -4 20 -10 20 -5
0 -10 -9 -10 -20z"/>
<path d="M2462 2226 c1 -10 8 -17 13 -17 15 1 12 24 -3 29 -9 3 -13 -2 -10
-12z"/>
<path d="M2972 2226 c1 -10 8 -17 13 -17 15 1 12 24 -3 29 -9 3 -13 -2 -10
-12z"/>
<path d="M2207 1770 c-3 -13 0 -20 9 -20 15 0 19 26 5 34 -5 3 -11 -3 -14 -14z"/>
<path d="M2050 1590 c19 -13 30 -13 30 0 0 6 -10 10 -22 10 -19 0 -20 -2 -8
-10z"/>
<path d="M2088 1563 c7 -3 16 -2 19 1 4 3 -2 6 -13 5 -11 0 -14 -3 -6 -6z"/>
<path d="M2053 1518 c15 -33 67 -46 67 -16 0 21 -11 23 -28 6 -8 -8 -16 -5
-31 13 l-21 24 13 -27z"/>
<path d="M2816 1521 c-3 -5 2 -15 12 -22 15 -12 16 -12 5 2 -7 9 -10 19 -6 22
3 4 4 7 0 7 -3 0 -8 -4 -11 -9z"/>
<path d="M2150 1510 c0 -5 7 -6 17 -3 10 4 14 2 10 -4 -4 -6 0 -14 8 -17 13
-4 14 -2 5 14 -11 20 -40 28 -40 10z"/>
<path d="M2211 1504 c0 -11 3 -14 6 -6 3 7 2 16 -1 19 -3 4 -6 -2 -5 -13z"/>
<path d="M2241 1504 c6 -7 16 -11 21 -8 11 7 3 17 -18 20 -12 2 -13 -1 -3 -12z"/>
<path d="M2290 1511 c0 -6 4 -13 10 -16 6 -3 7 1 4 9 -7 18 -14 21 -14 7z"/>
<path d="M2327 1507 c-3 -8 1 -14 9 -14 16 0 19 13 5 21 -5 3 -11 0 -14 -7z"/>
<path d="M2361 1504 c0 -11 3 -14 6 -6 3 7 2 16 -1 19 -3 4 -6 -2 -5 -13z"/>
<path d="M2391 1504 c0 -11 3 -14 6 -6 3 7 2 16 -1 19 -3 4 -6 -2 -5 -13z"/>
<path d="M2434 1509 c1 -7 9 -13 18 -15 11 -1 15 3 11 13 -4 11 -8 12 -13 3
-6 -9 -9 -9 -13 -1 -4 8 -5 8 -3 0z"/>
<path d="M2550 1511 c0 -7 -5 -9 -12 -5 -7 5 -8 3 -3 -5 5 -9 10 -10 18 -2 6
6 8 14 4 18 -4 3 -7 1 -7 -6z"/>
<path d="M2590 1504 c0 -8 5 -12 10 -9 6 3 10 10 10 16 0 5 -4 9 -10 9 -5 0
-10 -7 -10 -16z"/>
<path d="M2621 1504 c0 -11 3 -14 6 -6 3 7 2 16 -1 19 -3 4 -6 -2 -5 -13z"/>
<path d="M2650 1505 c0 -8 5 -15 10 -15 6 0 10 7 10 15 0 8 -4 15 -10 15 -5 0
-10 -7 -10 -15z"/>
<path d="M2680 1507 c0 -8 7 -14 15 -14 11 0 12 4 4 14 -6 7 -13 13 -15 13 -2
0 -4 -6 -4 -13z"/>
<path d="M2725 1511 c-3 -5 -2 -12 3 -15 5 -3 9 1 9 9 0 17 -3 19 -12 6z"/>
<path d="M2751 1504 c0 -11 3 -14 6 -6 3 7 2 16 -1 19 -3 4 -6 -2 -5 -13z"/>
<path d="M2777 1507 c-3 -8 1 -14 9 -14 16 0 19 13 5 21 -5 3 -11 0 -14 -7z"/>
<path d="M2850 1505 c0 -8 2 -15 4 -15 2 0 6 7 10 15 3 8 1 15 -4 15 -6 0 -10
-7 -10 -15z"/>
<path d="M2881 1504 c0 -11 3 -14 6 -6 3 7 2 16 -1 19 -3 4 -6 -2 -5 -13z"/>
<path d="M2906 1507 c3 -10 9 -15 12 -12 3 3 0 11 -7 18 -10 9 -11 8 -5 -6z"/>
<path d="M2931 1504 c0 -11 3 -14 6 -6 3 7 2 16 -1 19 -3 4 -6 -2 -5 -13z"/>
<path d="M2950 1505 c0 -6 6 -12 13 -12 8 0 14 6 14 12 0 6 -6 12 -14 12 -7 0
-13 -6 -13 -12z"/>
<path d="M2991 1504 c0 -11 3 -14 6 -6 3 7 2 16 -1 19 -3 4 -6 -2 -5 -13z"/>
<path d="M3085 1480 c3 -5 8 -10 11 -10 2 0 4 5 4 10 0 6 -5 10 -11 10 -5 0
-7 -4 -4 -10z"/>
<path d="M2150 1472 c0 -8 -5 -10 -12 -6 -7 4 -10 4 -6 0 3 -4 10 -8 15 -8 4
0 13 -4 20 -9 7 -7 13 -6 17 0 4 5 2 12 -4 16 -5 3 -10 3 -10 -2 0 -4 -5 -1
-10 7 -7 11 -10 11 -10 2z"/>
<path d="M2008 1463 c7 -3 16 -2 19 1 4 3 -2 6 -13 5 -11 0 -14 -3 -6 -6z"/>
<path d="M2028 1433 c7 -3 16 -2 19 1 4 3 -2 6 -13 5 -11 0 -14 -3 -6 -6z"/>
<path d="M2271 1424 c0 -11 3 -14 6 -6 3 7 2 16 -1 19 -3 4 -6 -2 -5 -13z"/>
<path d="M2300 1436 c0 -2 8 -10 18 -17 15 -13 16 -12 3 4 -13 16 -21 21 -21
13z"/>
<path d="M2350 1424 c0 -8 5 -12 10 -9 6 3 10 10 10 16 0 5 -4 9 -10 9 -5 0
-10 -7 -10 -16z"/>
<path d="M2411 1424 c0 -11 3 -14 6 -6 3 7 2 16 -1 19 -3 4 -6 -2 -5 -13z"/>
<path d="M2456 1427 c3 -10 9 -15 12 -12 3 3 0 11 -7 18 -10 9 -11 8 -5 -6z"/>
<path d="M2480 1423 c0 -7 4 -13 9 -13 5 0 11 6 14 13 3 8 -1 14 -9 14 -8 0
-14 -6 -14 -14z"/>
<path d="M2560 1431 c0 -6 4 -12 8 -15 5 -3 9 1 9 9 0 8 -4 15 -9 15 -4 0 -8
-4 -8 -9z"/>
<path d="M2601 1424 c0 -11 3 -14 6 -6 3 7 2 16 -1 19 -3 4 -6 -2 -5 -13z"/>
<path d="M2640 1425 c0 -8 2 -15 4 -15 2 0 6 7 10 15 3 8 1 15 -4 15 -6 0 -10
-7 -10 -15z"/>
<path d="M2680 1425 c0 -8 5 -15 10 -15 6 0 10 7 10 15 0 8 -4 15 -10 15 -5 0
-10 -7 -10 -15z"/>
<path d="M2750 1424 c0 -8 5 -12 10 -9 6 3 10 10 10 16 0 5 -4 9 -10 9 -5 0
-10 -7 -10 -16z"/>
<path d="M2781 1424 c0 -11 3 -14 6 -6 3 7 2 16 -1 19 -3 4 -6 -2 -5 -13z"/>
<path d="M2092 1381 c-11 -7 -11 -9 0 -14 9 -3 15 1 15 9 0 8 -1 14 -1 14 -1
0 -7 -4 -14 -9z"/>
<path d="M2015 1370 c3 -5 14 -10 23 -10 15 0 15 2 2 10 -20 13 -33 13 -25 0z"/>
<path d="M2008 1343 c6 -2 18 -2 25 0 6 3 1 5 -13 5 -14 0 -19 -2 -12 -5z"/>
<path d="M2540 1340 c0 -5 5 -10 11 -10 5 0 7 5 4 10 -3 6 -8 10 -11 10 -2 0
-4 -4 -4 -10z"/>
<path d="M2057 1329 c7 -7 15 -10 18 -7 3 3 -2 9 -12 12 -14 6 -15 5 -6 -5z"/>
<path d="M2090 1317 c0 -2 15 -14 33 -27 20 -15 27 -17 18 -6 -13 16 -51 41
-51 33z"/>
<path d="M2005 1289 c-4 -6 -5 -12 -2 -15 2 -3 7 2 10 11 7 17 1 20 -8 4z"/>
<path d="M2091 1277 c2 -1 13 -9 24 -17 19 -14 19 -14 6 3 -7 9 -18 17 -24 17
-6 0 -8 -1 -6 -3z"/>
<path d="M2440 1260 c0 -5 5 -10 11 -10 5 0 7 5 4 10 -3 6 -8 10 -11 10 -2 0
-4 -4 -4 -10z"/>
<path d="M2050 1253 c14 -2 31 -12 37 -20 7 -9 16 -13 20 -10 11 11 -30 36
-57 35 l-25 -1 25 -4z"/>
<path d="M2148 1239 c6 -9 10 -18 7 -21 -3 -2 10 -18 28 -34 26 -24 28 -24 9
-3 -12 14 -20 28 -17 31 3 2 -5 13 -17 24 -14 12 -18 13 -10 3z"/>
<path d="M2063 1213 c4 -3 -1 -16 -10 -27 -10 -12 -11 -15 -3 -9 11 10 18 9
34 -5 21 -17 21 -17 2 6 -12 13 -14 22 -7 22 7 0 9 5 6 10 -3 6 -11 10 -17 10
-6 0 -8 -3 -5 -7z"/>
<path d="M2121 1208 c2 -2 24 -21 49 -43 l45 -40 -40 43 c-21 23 -43 42 -49
42 -5 0 -7 -1 -5 -2z"/>
<path d="M2646 1197 c3 -10 9 -15 12 -12 3 3 0 11 -7 18 -10 9 -11 8 -5 -6z"/>
<path d="M2350 1190 c8 -5 20 -10 25 -10 6 0 3 5 -5 10 -8 5 -19 10 -25 10 -5
0 -3 -5 5 -10z"/>
<path d="M2500 1190 c0 -5 5 -10 10 -10 6 0 10 5 10 10 0 6 -4 10 -10 10 -5 0
-10 -4 -10 -10z"/>
<path d="M2170 1135 c19 -19 36 -35 39 -35 3 0 -10 16 -29 35 -19 19 -36 35
-39 35 -3 0 10 -16 29 -35z"/>
<path d="M2024 1145 c3 -21 16 -31 16 -12 0 9 -4 18 -9 21 -5 4 -8 -1 -7 -9z"/>
<path d="M2064 1148 c-4 -6 -3 -8 3 -5 6 4 20 -2 32 -12 25 -22 27 -33 4 -24
-11 4 -7 -5 12 -30 16 -20 31 -34 34 -32 2 3 -2 11 -9 20 -7 9 -10 19 -6 23 4
4 11 0 16 -8 5 -8 16 -24 25 -35 16 -19 16 -18 1 7 -21 35 -20 44 1 27 11 -9
10 -3 -6 19 -12 17 -25 32 -28 32 -3 0 0 -7 7 -15 23 -28 2 -28 -22 0 -31 36
-55 48 -64 33z"/>
<path d="M2525 1060 c0 -21 3 -36 8 -33 4 2 7 17 7 33 0 16 -3 31 -7 33 -5 3
-8 -12 -8 -33z"/>
<path d="M2587 1093 c-10 -9 -9 -33 1 -33 4 0 8 9 8 20 0 23 0 22 -9 13z"/>
<path d="M2710 1087 c0 -1 -4 -18 -10 -36 -5 -20 -6 -31 -1 -25 12 11 25 64
17 64 -3 0 -6 -1 -6 -3z"/>
<path d="M2391 1064 c0 -11 3 -14 6 -6 3 7 2 16 -1 19 -3 4 -6 -2 -5 -13z"/>
<path d="M2666 1065 c-9 -26 -7 -32 5 -12 6 10 9 21 6 23 -2 3 -7 -2 -11 -11z"/>
<path d="M2096 1062 c-3 -5 1 -9 9 -9 8 0 12 4 9 9 -3 4 -7 8 -9 8 -2 0 -6 -4
-9 -8z"/>
<path d="M2551 1054 c0 -11 3 -14 6 -6 3 7 2 16 -1 19 -3 4 -6 -2 -5 -13z"/>
<path d="M2062 1030 c0 -14 2 -19 5 -12 2 6 2 18 0 25 -3 6 -5 1 -5 -13z"/>
<path d="M2131 1020 c14 -31 19 -36 19 -24 0 6 -7 19 -16 30 -14 18 -14 18 -3
-6z"/>
<path d="M2410 1030 c0 -5 5 -10 11 -10 5 0 7 5 4 10 -3 6 -8 10 -11 10 -2 0
-4 -4 -4 -10z"/>
<path d="M2097 1013 c-2 -5 -1 -19 4 -33 7 -23 7 -23 8 8 1 31 -3 40 -12 25z"/>
</g>
</svg>
